<svg xmlns="http://www.w3.org/2000/svg" viewBox="0 0 1600 900" preserveAspectRatio="xMidYMid slice">
  <defs>
    <linearGradient id="bg" x1="0" y1="0" x2="1" y2="1">
      <stop offset="0%" stop-color="#191B1D"/>
      <stop offset="100%" stop-color="#23262A"/>
    </linearGradient>
    <radialGradient id="glow" cx="75%" cy="20%" r="60%">
      <stop offset="0%" stop-color="#FF5A1F" stop-opacity="0.25"/>
      <stop offset="100%" stop-color="#FF5A1F" stop-opacity="0"/>
    </radialGradient>
    <linearGradient id="accent" x1="0" y1="0" x2="1" y2="1">
      <stop offset="0%" stop-color="#FFC300"/>
      <stop offset="100%" stop-color="#FF5A1F"/>
    </linearGradient>
    <filter id="shadow" x="-20%" y="-20%" width="140%" height="140%">
      <feGaussianBlur in="SourceAlpha" stdDeviation="14"/>
      <feOffset dx="0" dy="16"/>
      <feComponentTransfer><feFuncA type="linear" slope="0.55"/></feComponentTransfer>
      <feMerge><feMergeNode/><feMergeNode in="SourceGraphic"/></feMerge>
    </filter>
  </defs>

  <rect width="1600" height="900" fill="url(#bg)"/>
  <rect width="1600" height="900" fill="url(#glow)"/>

  <!-- Background window (small, top right) -->
  <g transform="translate(1080 70) rotate(-6)" filter="url(#shadow)">
    <rect width="460" height="300" rx="10" fill="#FAFAF7"/>
    <rect width="460" height="28" rx="10" fill="#E9E9E2"/>
    <circle cx="16" cy="14" r="4" fill="#FF5A4A"/>
    <circle cx="30" cy="14" r="4" fill="#FFC300"/>
    <circle cx="44" cy="14" r="4" fill="#2ECC71"/>
    <rect x="180" y="6" width="240" height="16" rx="8" fill="#D9D9D2"/>
    <rect x="30" y="60" width="180" height="10" rx="3" fill="#191B1D"/>
    <rect x="30" y="80" width="140" height="6" rx="3" fill="#A8A89F"/>
    <rect x="30" y="105" width="400" height="130" rx="6" fill="url(#accent)"/>
    <rect x="30" y="250" width="100" height="20" rx="10" fill="#191B1D"/>
  </g>

  <!-- Middle-back window -->
  <g transform="translate(640 430) rotate(-4)" filter="url(#shadow)">
    <rect width="580" height="380" rx="12" fill="#FAFAF7"/>
    <rect width="580" height="32" rx="12" fill="#E9E9E2"/>
    <circle cx="18" cy="16" r="5" fill="#FF5A4A"/>
    <circle cx="34" cy="16" r="5" fill="#FFC300"/>
    <circle cx="50" cy="16" r="5" fill="#2ECC71"/>
    <rect x="240" y="8" width="280" height="18" rx="9" fill="#D9D9D2"/>
    <rect x="40" y="70" width="260" height="14" rx="4" fill="#191B1D"/>
    <rect x="40" y="96" width="180" height="8" rx="3" fill="#A8A89F"/>
    <rect x="40" y="130" width="170" height="170" rx="6" fill="#191B1D"/>
    <rect x="230" y="130" width="170" height="82" rx="6" fill="url(#accent)"/>
    <rect x="230" y="222" width="170" height="78" rx="6" fill="#FF5A1F" opacity="0.5"/>
    <rect x="420" y="130" width="120" height="170" rx="6" fill="#EDEDE6"/>
    <rect x="40" y="320" width="100" height="30" rx="15" fill="#FF5A1F"/>
    <rect x="160" y="320" width="80" height="30" rx="15" fill="none" stroke="#191B1D" stroke-width="1.5"/>
  </g>

  <!-- Foreground (main) window -->
  <g transform="translate(60 150) rotate(-3)" filter="url(#shadow)">
    <rect width="820" height="540" rx="14" fill="#FAFAF7"/>
    <rect width="820" height="38" rx="14" fill="#E9E9E2"/>
    <circle cx="22" cy="19" r="6" fill="#FF5A4A"/>
    <circle cx="42" cy="19" r="6" fill="#FFC300"/>
    <circle cx="62" cy="19" r="6" fill="#2ECC71"/>
    <rect x="320" y="10" width="380" height="20" rx="10" fill="#D9D9D2"/>
    <text x="330" y="25" font-family="Inter, sans-serif" font-size="11" fill="#6b6b60">primeresin.ru</text>

    <!-- Nav -->
    <rect x="40" y="60" width="740" height="1" fill="#EDEDE6"/>
    <rect x="40" y="80" width="80" height="10" rx="3" fill="#191B1D"/>
    <rect x="140" y="80" width="60" height="10" rx="3" fill="#A8A89F"/>
    <rect x="220" y="80" width="70" height="10" rx="3" fill="#A8A89F"/>
    <rect x="310" y="80" width="90" height="10" rx="3" fill="#A8A89F"/>
    <rect x="680" y="72" width="100" height="26" rx="13" fill="#FF5A1F"/>

    <!-- Hero -->
    <rect x="40" y="130" width="420" height="32" rx="4" fill="#191B1D"/>
    <rect x="40" y="172" width="340" height="22" rx="4" fill="#191B1D"/>
    <rect x="40" y="210" width="400" height="8" rx="3" fill="#A8A89F"/>
    <rect x="40" y="224" width="380" height="8" rx="3" fill="#A8A89F"/>
    <rect x="40" y="238" width="300" height="8" rx="3" fill="#A8A89F"/>
    <rect x="40" y="270" width="140" height="36" rx="18" fill="url(#accent)"/>
    <rect x="196" y="270" width="140" height="36" rx="18" fill="none" stroke="#191B1D" stroke-width="1.5"/>

    <rect x="480" y="130" width="300" height="220" rx="10" fill="#191B1D"/>
    <circle cx="630" cy="240" r="40" fill="url(#accent)" opacity="0.85"/>
    <path d="M620 225 L650 240 L620 255 Z" fill="#191B1D"/>

    <!-- Content grid -->
    <rect x="40" y="380" width="230" height="130" rx="8" fill="#EDEDE6"/>
    <rect x="290" y="380" width="230" height="130" rx="8" fill="#EDEDE6"/>
    <rect x="540" y="380" width="240" height="130" rx="8" fill="#FF5A1F" opacity="0.85"/>
    <rect x="60" y="400" width="120" height="8" rx="3" fill="#191B1D"/>
    <rect x="60" y="418" width="180" height="6" rx="2" fill="#A8A89F"/>
    <rect x="60" y="430" width="150" height="6" rx="2" fill="#A8A89F"/>
    <rect x="310" y="400" width="120" height="8" rx="3" fill="#191B1D"/>
    <rect x="310" y="418" width="180" height="6" rx="2" fill="#A8A89F"/>
    <rect x="310" y="430" width="150" height="6" rx="2" fill="#A8A89F"/>
  </g>

  <!-- Migration arrow: MoDX → WordPress -->
  <g transform="translate(940 760)" opacity="0.9">
    <rect x="-40" y="-32" width="160" height="64" rx="14" fill="#191B1D" stroke="#FF5A1F" stroke-width="1.5"/>
    <text x="40" y="-4" font-family="Inter, sans-serif" font-size="13" fill="#FAFAF7" text-anchor="middle" font-weight="600">MoDX</text>
    <text x="40" y="20" font-family="Inter, sans-serif" font-size="10" fill="#A8A89F" text-anchor="middle" letter-spacing="2">LEGACY</text>

    <path d="M140 0 L210 0" stroke="#FFC300" stroke-width="2.5" stroke-linecap="round" stroke-dasharray="6 6"/>
    <path d="M200 -8 L220 0 L200 8 Z" fill="#FFC300"/>

    <rect x="230" y="-32" width="200" height="64" rx="14" fill="#FF5A1F"/>
    <text x="330" y="-4" font-family="Inter, sans-serif" font-size="13" fill="#191B1D" text-anchor="middle" font-weight="700">WordPress</text>
    <text x="330" y="20" font-family="Inter, sans-serif" font-size="10" fill="#191B1D" text-anchor="middle" letter-spacing="2" opacity="0.7">NEW STACK</text>
  </g>

  <!-- Tag badges -->
  <g transform="translate(80 760)">
    <rect width="300" height="34" rx="17" fill="none" stroke="#FAFAF7" stroke-width="1" opacity="0.5"/>
    <text x="150" y="22" font-family="Inter, sans-serif" font-size="11" fill="#FAFAF7" text-anchor="middle" letter-spacing="2.2" font-weight="500">SEO · ПЕРЕНОС · БЕЗ ПОТЕРЬ</text>
  </g>
</svg>
