<svg xmlns="http://www.w3.org/2000/svg" viewBox="0 0 48 48" fill="none">
  <rect width="48" height="48" rx="12" fill="#191B1D"/>
  <path d="M14 25 C10 24 6 20 5 15 C5 12 8 11 10 12 C12 13 11.5 16 13 18 L16 22 Z" fill="#EB94BD"/>
  <circle cx="8" cy="15" r="1.6" fill="#191B1D"/>
  <path d="M34 25 C38 24 42 20 43 15 C43 12 40 11 38 12 C36 13 36.5 16 35 18 L32 22 Z" fill="#EB94BD"/>
  <circle cx="40" cy="15" r="1.6" fill="#191B1D"/>
  <ellipse cx="24" cy="28" rx="11" ry="8" fill="#EB94BD"/>
  <ellipse cx="24" cy="26" rx="8" ry="4" fill="#F9A8D4" opacity="0.55"/>
  <circle cx="20" cy="16" r="1.8" fill="#191B1D"/>
  <circle cx="28" cy="16" r="1.8" fill="#191B1D"/>
  <line x1="21" y1="21" x2="20" y2="17" stroke="#EB94BD" stroke-width="1.8" stroke-linecap="round"/>
  <line x1="27" y1="21" x2="28" y2="17" stroke="#EB94BD" stroke-width="1.8" stroke-linecap="round"/>
  <path d="M14 30 L6 32" stroke="#EB94BD" stroke-width="2.2" stroke-linecap="round"/>
  <path d="M15 33 L8 37" stroke="#EB94BD" stroke-width="2.2" stroke-linecap="round"/>
  <path d="M17 35 L12 41" stroke="#EB94BD" stroke-width="2.2" stroke-linecap="round"/>
  <path d="M34 30 L42 32" stroke="#EB94BD" stroke-width="2.2" stroke-linecap="round"/>
  <path d="M33 33 L40 37" stroke="#EB94BD" stroke-width="2.2" stroke-linecap="round"/>
  <path d="M31 35 L36 41" stroke="#EB94BD" stroke-width="2.2" stroke-linecap="round"/>
</svg>
